<?xml version="1.0" encoding="UTF-8" standalone="no"?>
<!-- Generator: Adobe Illustrator 18.1.1, SVG Export Plug-In . SVG Version: 6.00 Build 0)  -->

<svg
   xmlns:dc="http://purl.org/dc/elements/1.1/"
   xmlns:cc="http://creativecommons.org/ns#"
   xmlns:rdf="http://www.w3.org/1999/02/22-rdf-syntax-ns#"
   xmlns:svg="http://www.w3.org/2000/svg"
   xmlns="http://www.w3.org/2000/svg"
   xmlns:xlink="http://www.w3.org/1999/xlink"
   xmlns:sodipodi="http://sodipodi.sourceforge.net/DTD/sodipodi-0.dtd"
   xmlns:inkscape="http://www.inkscape.org/namespaces/inkscape"
   version="1.1"
   id="Layer_1"
   x="0px"
   y="0px"
   viewBox="0 0 34 34"
   enable-background="new 0 0 34 34"
   xml:space="preserve"
   sodipodi:docname="PowerBI.svg"
   inkscape:version="0.92.2 (5c3e80d, 2017-08-06)"><metadata
     id="metadata25"><rdf:RDF><cc:Work
         rdf:about=""><dc:format>image/svg+xml</dc:format><dc:type
           rdf:resource="http://purl.org/dc/dcmitype/StillImage" /></cc:Work></rdf:RDF></metadata><defs
     id="defs23" /><sodipodi:namedview
     pagecolor="#ffffff"
     bordercolor="#666666"
     borderopacity="1"
     objecttolerance="10"
     gridtolerance="10"
     guidetolerance="10"
     inkscape:pageopacity="0"
     inkscape:pageshadow="2"
     inkscape:window-width="1366"
     inkscape:window-height="706"
     id="namedview21"
     showgrid="false"
     inkscape:zoom="6.9411765"
     inkscape:cx="-4.0338983"
     inkscape:cy="18.224576"
     inkscape:window-x="-8"
     inkscape:window-y="-8"
     inkscape:window-maximized="1"
     inkscape:current-layer="layer1" /><g
     inkscape:groupmode="layer"
     id="layer1"
     inkscape:label="Layer 1"
     style="display:inline"><rect
       style="opacity:1;fill:#f3c91f;fill-opacity:0.94117647;stroke:none;stroke-width:1.00157475;stroke-linejoin:round;stroke-miterlimit:4;stroke-dasharray:none;stroke-dashoffset:0;stroke-opacity:1"
       id="rect27"
       width="34"
       height="33.85593"
       x="0.14406779"
       y="0.14406779" /></g><g
     id="g18"><defs
       id="defs3"><rect
         id="SVGID_1_"
         x="0.9"
         y="0"
         width="32.2"
         height="33.9" /></defs><clipPath
       id="SVGID_2_"><use
         xlink:href="#SVGID_1_"
         overflow="visible"
         id="use5" /></clipPath><path
       clip-path="url(#SVGID_2_)"
       fill="#231F20"
       d="M11.1,27.3c0,1.1-0.9,2.1-2.1,2.1s-2.1-0.9-2.1-2.1v-9c0-1.1,0.9-2.1,2.1-2.1   s2.1,0.9,2.1,2.1V27.3z"
       id="path8" /><path
       clip-path="url(#SVGID_2_)"
       fill="#231F20"
       d="M17.1,29.7c0,1.1-0.9,2.1-2.1,2.1S13,30.9,13,29.7V16c0-1.1,0.9-2.1,2.1-2.1   s2.1,0.9,2.1,2.1V29.7z"
       id="path10" /><path
       clip-path="url(#SVGID_2_)"
       fill="#231F20"
       d="M5,25.3c0,1.1-0.9,2.1-2.1,2.1s-2.1-0.9-2.1-2.1v-4.9c0-1.1,0.9-2.1,2.1-2.1   S5,19.3,5,20.4V25.3z"
       id="path12" /><path
       clip-path="url(#SVGID_2_)"
       fill="#231F20"
       d="M23.1,31.9c0,1.1-0.9,2.1-2.1,2.1C19.9,34,19,33,19,31.9V13.7   c0-1.1,0.9-2.1,2.1-2.1c1.1,0,2.1,0.9,2.1,2.1V31.9z"
       id="path14" /><path
       clip-path="url(#SVGID_2_)"
       fill="#231F20"
       d="M29.7,31c-0.4,0-0.7-0.1-1.1-0.2L26.1,30c-0.4-0.1-0.7-0.6-0.5-1   c0.1-0.4,0.6-0.7,1-0.5l2.6,0.8c0.5,0.2,1.1,0.1,1.6-0.3c0.5-0.3,0.7-0.9,0.7-1.4V10.9c0-0.8-0.5-1.5-1.2-1.7L5.8,1.8   C5.3,1.6,4.7,1.7,4.2,2C3.8,2.4,3.5,2.9,3.5,3.5v11.5c0,0.5-0.4,0.8-0.8,0.8c-0.5,0-0.8-0.4-0.8-0.8V3.5c0-1.1,0.5-2.1,1.4-2.7   c0.9-0.7,2-0.8,3-0.5l24.4,7.4c1.4,0.4,2.4,1.8,2.4,3.3v16.7c0,1.1-0.5,2.1-1.4,2.8C31.1,30.7,30.4,31,29.7,31"
       id="path16" /></g><g
     inkscape:groupmode="layer"
     id="layer2"
     inkscape:label="Layer 2" /></svg>