<?xml version="1.0" encoding="UTF-8" standalone="no"?>
<svg
   xmlns:dc="http://purl.org/dc/elements/1.1/"
   xmlns:cc="http://creativecommons.org/ns#"
   xmlns:rdf="http://www.w3.org/1999/02/22-rdf-syntax-ns#"
   xmlns:svg="http://www.w3.org/2000/svg"
   xmlns="http://www.w3.org/2000/svg"
   xmlns:sodipodi="http://sodipodi.sourceforge.net/DTD/sodipodi-0.dtd"
   xmlns:inkscape="http://www.inkscape.org/namespaces/inkscape"
   viewBox="0 0 512 512"
   version="1.1"
   id="svg4"
   sodipodi:docname="base.svg"
   inkscape:version="0.92.2 (5c3e80d, 2017-08-06)"
   width="512"
   height="512"
   inkscape:export-filename="C:\Users\Yenifer\Downloads\Nueva carpeta (11)\Nueva carpeta (2)\base.svg.png"
   inkscape:export-xdpi="96"
   inkscape:export-ydpi="96">
  <metadata
     id="metadata10">
    <rdf:RDF>
      <cc:Work
         rdf:about="">
        <dc:format>image/svg+xml</dc:format>
        <dc:type
           rdf:resource="http://purl.org/dc/dcmitype/StillImage" />
        <dc:title />
      </cc:Work>
    </rdf:RDF>
  </metadata>
  <defs
     id="defs8" />
  <sodipodi:namedview
     pagecolor="#ffffff"
     bordercolor="#666666"
     borderopacity="1"
     objecttolerance="10"
     gridtolerance="10"
     guidetolerance="10"
     inkscape:pageopacity="0"
     inkscape:pageshadow="2"
     inkscape:window-width="1366"
     inkscape:window-height="706"
     id="namedview6"
     showgrid="false"
     showguides="true"
     inkscape:guide-bbox="true"
     inkscape:zoom="0.921875"
     inkscape:cx="152.65647"
     inkscape:cy="223.19052"
     inkscape:window-x="-8"
     inkscape:window-y="-8"
     inkscape:window-maximized="1"
     inkscape:current-layer="svg4" />
  <path
     d="m 500.74115,404.58474 -133.94302,-188.5 V 65.084746 h 9.14286 c 15.20004,0 27.42863,-10.7 27.42863,-24 v -16 c 0,-13.3 -12.22859,-24.0000003 -27.42863,-24.0000003 H 138.22643 c -15.20002,0 -27.4286,10.7000003 -27.4286,24.0000003 v 16 c 0,13.3 12.22858,24 27.4286,24 h 9.14287 V 216.08474 l -133.943022,188.5 c -33.485755,47.1 5.142864,108.5 68.685803,108.5 H 432.05535 c 63.65724,0 102.17156,-61.5 68.6858,-108.5 z M 57.647156,461.55932 213.76938,243.48474 c 4.22858,-5.2 6.62857,-11.6 6.62857,-18.4 V 65.084746 h 73.14296 V 225.08474 c 0,6.9 2.51428,13.2 6.62858,18.4 l 155.50238,218.07458 z"
     id="path2"
     style="fill:#7950f2;stroke-width:1.06904566;fill-opacity:1"
     inkscape:connector-curvature="0"
     sodipodi:nodetypes="cccsssssssscccsscccsccsccc" />
  <g
     aria-label="          1          10"
     transform="translate(-35.79661,64)"
     style="font-style:normal;font-variant:normal;font-weight:bold;font-stretch:normal;font-size:192px;line-height:1;font-family:'Humanst521 BT';-inkscape-font-specification:'Humanst521 BT Bold';letter-spacing:0px;word-spacing:0px;fill:#000000;fill-opacity:1;stroke:none"
     id="flowRoot15">
    <path
       d="M 278.20312,202.28125 V 71.125 h 29.8125 v 131.15625 z"
       style="fill:#4dabf7;fill-opacity:1"
       id="path25" />
    <path
       d="M 225.70312,394.28125 V 263.125 h 29.8125 v 131.15625 z"
       style="fill:#1c7ed6;fill-opacity:1"
       id="path27" />
    <path
       d="m 329.39062,328.84375 q 0,22.03125 3.84375,32.53125 3.84375,10.40625 11.90625,10.40625 8.0625,0 12,-10.5 3.9375,-10.59375 3.9375,-32.4375 0,-21.9375 -3.9375,-32.53125 -3.9375,-10.6875 -12,-10.6875 -8.0625,0 -11.90625,10.5 -3.84375,10.5 -3.84375,32.71875 z m -31.125,0 q 0,-31.3125 12.75,-49.5 12.75,-18.28125 34.125,-18.28125 21.46875,0 34.125,18.1875 12.75,18.1875 12.75,49.59375 0,31.3125 -12.75,49.59375 -12.65625,18.1875 -34.125,18.1875 -21.375,0 -34.125,-18.28125 -12.75,-18.28125 -12.75,-49.5 z"
       style="fill:#1864ab;fill-opacity:1"
       id="path29" />
  </g>
</svg>
